<?xml version="1.0" standalone="no"?>
<!DOCTYPE svg PUBLIC "-//W3C//DTD SVG 20010904//EN"
 "http://www.w3.org/TR/2001/REC-SVG-20010904/DTD/svg10.dtd">
<svg version="1.0" xmlns="http://www.w3.org/2000/svg"
 width="1080.000000pt" height="1080.000000pt" viewBox="0 0 1080.000000 1080.000000"
 preserveAspectRatio="xMidYMid meet">

<g transform="translate(0.000000,1080.000000) scale(0.100000,-0.100000)"
fill="#000000" stroke="none">
<path d="M5210 10614 c-396 -18 -642 -49 -980 -125 -811 -182 -1603 -586
-2238 -1142 -1426 -1248 -2048 -3163 -1631 -5017 135 -601 359 -1131 697
-1650 736 -1131 1874 -1927 3182 -2225 887 -203 1848 -159 2713 121 980 318
1818 902 2459 1710 415 524 722 1121 908 1765 349 1205 237 2537 -305 3644
-359 734 -841 1334 -1465 1826 -787 620 -1781 1009 -2760 1078 -161 12 -475
20 -580 15z m525 -229 c466 -38 827 -111 1245 -253 266 -91 602 -242 845 -381
668 -383 1264 -950 1688 -1604 514 -793 787 -1720 787 -2672 0 -965 -278
-1897 -805 -2700 -701 -1066 -1756 -1803 -3005 -2099 -930 -220 -1979 -149
-2865 194 -345 134 -639 282 -920 465 -60 39 -177 105 -260 146 -446 225 -809
512 -1131 894 -59 70 -147 185 -141 185 2 0 46 -48 98 -106 161 -182 411 -400
614 -537 607 -410 1316 -638 2181 -702 660 -48 1469 27 2031 189 171 49 298
98 446 173 102 51 127 67 123 81 -7 22 -285 1470 -288 1500 -3 20 5 27 43 42
l47 19 5 -27 c81 -439 244 -1262 249 -1262 20 0 315 139 425 200 854 476 1480
1252 1754 2174 73 248 161 661 191 906 18 142 17 670 0 810 -81 637 -268 1155
-597 1655 -476 722 -1167 1247 -1994 1516 -250 81 -414 114 -881 179 -1212
167 -2250 31 -3140 -411 -623 -310 -1111 -734 -1492 -1298 -43 -63 -78 -112
-78 -108 0 15 125 256 198 382 734 1267 1985 2143 3412 2389 417 72 833 93
1215 61z m-690 -1185 c600 -44 1056 -138 1419 -295 27 -11 37 -21 34 -33 -3
-9 -80 -314 -173 -677 -93 -363 -169 -661 -170 -663 -1 -1 -46 16 -101 38
-360 147 -773 226 -1229 237 -419 9 -721 -34 -1045 -149 -934 -331 -1460
-1166 -1460 -2314 0 -507 84 -922 259 -1281 116 -237 225 -394 393 -564 345
-350 807 -559 1393 -631 183 -22 652 -16 860 11 322 42 602 102 824 177 56 20
104 34 106 32 1 -2 57 -289 124 -638 68 -349 125 -647 128 -661 5 -25 0 -28
-80 -62 -225 -94 -567 -181 -907 -231 -319 -47 -505 -59 -910 -60 -486 -1
-709 18 -1070 90 -1037 208 -1824 719 -2331 1515 -281 441 -468 980 -543 1569
-52 406 -49 931 9 1323 200 1350 978 2382 2195 2910 482 209 946 315 1580 360
112 8 568 6 695 -3z m1874 -350 c332 -163 551 -309 821 -546 303 -266 546
-568 753 -932 67 -118 187 -368 187 -389 0 -4 -32 51 -71 122 -91 166 -253
409 -366 550 -182 227 -491 520 -726 688 -212 152 -624 381 -638 354 -3 -6
-100 -381 -214 -832 -115 -451 -212 -824 -215 -828 -4 -5 -83 24 -174 62 -349
148 -598 216 -971 267 -163 22 -660 26 -800 6 -528 -75 -935 -266 -1235 -579
-341 -355 -521 -791 -571 -1381 -15 -178 -6 -563 16 -722 38 -272 111 -517
220 -736 39 -79 65 -138 59 -133 -25 20 -127 182 -179 281 -125 241 -202 496
-247 828 -20 147 -17 661 5 820 76 539 274 963 595 1272 309 297 700 473 1202
540 126 17 602 17 740 0 401 -49 680 -124 1049 -282 79 -34 147 -58 151 -53 8
10 430 1662 430 1686 0 9 4 17 8 17 4 0 81 -36 171 -80z"/>
</g>
</svg>
